PathFileType	4	(X/Y/Z)	C:\Users\WrightLab\Desktop\Jo\P5V41.trc
DataRate	CameraRate	NumFrames	NumMarkers	Units	OrigDataRate	OrigDataStartFrame	OrigNumFrames
100.00	100.00	      81	19	mm	100.00	143	      1140
Frame#	Time	Headset_Front			Headset_Back			Headset_Left			Headset_Right			Left_Shoulder			Right_Shoulder			Sternum			C7			Left Elbow			Right Elbow			Left Wrist			Right Wrist			Left ASIS			Right ASIS			S2			Left Knee			Right Knee			Left Ankle			Right Ankle			
		X1	Y1	Z1	X2	Y2	Z2	X3	Y3	Z3	X4	Y4	Z4	X5	Y5	Z5	X6	Y6	Z6	X7	Y7	Z7	X8	Y8	Z8	X9	Y9	Z9	X10	Y10	Z10	X11	Y11	Z11	X12	Y12	Z12	X13	Y13	Z13	X14	Y14	Z14	X15	Y15	Z15	X16	Y16	Z16	X17	Y17	Z17	X18	Y18	Z18	X19	Y19	Z19	

143	1.420																																																	-544.25745	459.09888	-1482.64771							
144	1.430																																																	-543.58771	458.93179	-1481.07935							
145	1.440																																																	-543.59485	459.07516	-1482.05371							
146	1.450																																																	-543.33215	459.74332	-1480.26001							
147	1.460																																																	-543.11932	459.85916	-1479.99719							
148	1.470																																																	-542.66919	460.03522	-1477.86792							
149	1.480																																																	-542.15210	460.07037	-1477.52441							
150	1.490																																																	-542.01471	460.13843	-1477.35461							
151	1.500																																																	-541.59637	459.45822	-1476.98547							
152	1.510																																																	-541.67688	459.07211	-1478.79163							
153	1.520																																																	-541.51062	459.17899	-1478.58716							
154	1.530																																																	-541.46112	459.20624	-1478.52612							
155	1.540																																																	-541.78668	459.85495	-1480.11743							
156	1.550																																																	-541.51221	459.42355	-1479.44934							
157	1.560																																																	-540.66693	458.79123	-1479.45166							
158	1.570																																																	-540.13318	459.35645	-1479.06921							
159	1.580																																																	-540.10626	459.37955	-1479.03638							
160	1.590																																																	-540.06781	459.41248	-1478.98938							
161	1.600																																																	-539.52136	459.48709	-1478.67444							
162	1.610																																																	-539.51080	459.49609	-1478.66150							
163	1.620																																																	-538.97406	459.76447	-1478.33289							
164	1.630																																																	-538.95966	459.77679	-1478.31543							
165	1.640																																																	-539.09973	460.13748	-1478.84485							
166	1.650																																																	-539.08990	460.14594	-1478.83289							
167	1.660																																																	-538.87073	459.32474	-1479.28271							
168	1.670																																																	-538.84888	459.34351	-1479.25598							
169	1.680																																																	-539.32062	457.87088	-1486.24963							
170	1.690																																																	-538.93188	457.63641	-1488.34583							
171	1.700																																																	-538.93188	457.63641	-1488.34583							
172	1.710																																																	-538.93188	457.63641	-1488.34583							
173	1.720																																																	-538.93188	457.63641	-1488.34583							
174	1.730																																																	-538.93188	457.63641	-1488.34583							
175	1.740																																																	-538.93188	457.63641	-1488.34583							
176	1.750																																																	-538.91052	457.64957	-1488.25281							
177	1.760																																																	-538.91724	457.64539	-1488.28186							
178	1.770																																																	-538.92102	457.64432	-1488.29883							
179	1.780																																																	-538.92126	457.64294	-1488.29944							
180	1.790																																																	-538.92126	457.64294	-1488.29944							
181	1.800																																																	-538.92621	457.63989	-1488.32104							
182	1.810																																																	-538.93188	457.63641	-1488.34583							
183	1.820																																																	-538.93188	457.63641	-1488.34583							
184	1.830																																																	-538.93188	457.63641	-1488.34583							
185	1.840																																																	-538.93188	457.63641	-1488.34583							
186	1.850																																																	-538.79797	459.37314	-1479.19324							
187	1.860																																																	-538.79620	459.37314	-1479.19104							
188	1.870																																																	-539.28766	457.89108	-1486.10632							
189	1.880																																																	-539.27374	457.88947	-1486.04358							
190	1.890																																																	-539.26038	457.88062	-1485.98157							
191	1.900																																																	-539.26654	457.84735	-1486.00195							
192	1.910																																																	-539.24683	457.84366	-1485.91284							
193	1.920																																																	-539.21442	457.88647	-1485.77661							
194	1.930																																																	-538.76770	457.71182	-1487.62488							
195	1.940																																		-418.41257	1145.28772	-1311.42334													-538.68878	457.78625	-1487.28687							
196	1.950																																		-418.24417	1145.09766	-1310.62244													-538.29840	456.77600	-1488.35144							
197	1.960																																		-418.38919	1144.26379	-1307.13818													-537.56226	456.30188	-1488.79688							
198	1.970																																		-418.69763	1143.94739	-1303.42957													-536.70441	457.36566	-1485.17444							
199	1.980																																		-416.96515	1146.39514	-1285.50159													-534.72766	457.11554	-1483.25317							
200	1.990																																		-417.48953	1142.84949	-1301.28308													-532.24127	457.34393	-1484.36829							
201	2.000																																		-415.80585	1145.78406	-1281.49524													-531.63983	458.16913	-1481.83838							
202	2.010																																		-415.42722	1146.06897	-1279.63220													-530.65375	457.33527	-1484.16382							
203	2.020																																		-415.17624	1146.24597	-1277.15796													-529.82227	455.77655	-1485.43298							
204	2.030																																		-414.99365	1145.96423	-1274.55273													-527.58551	455.14624	-1486.17200							
205	2.040																																		-414.60077	1146.17993	-1272.20361													-524.68604	457.68463	-1480.49536							
206	2.050																																		-414.11853	1146.23425	-1269.89587													-523.31543	458.11743	-1477.50562							
207	2.060																																		-413.09598	1145.69775	-1267.17261													-522.12598	456.44461	-1480.98767							
208	2.070																																		-412.55832	1145.67920	-1263.52234													-521.30402	455.74509	-1482.68201							
209	2.080																																		-411.53738	1144.89526	-1260.12085													-519.15271	455.48172	-1483.15088							
210	2.090																																		-411.15494	1144.88379	-1256.54443													-516.82739	458.48099	-1475.29724							
211	2.100																																		-410.00357	1144.60889	-1253.11316													-515.39215	459.02176	-1472.02039							
212	2.110																																		-414.44592	1146.69080	-1248.45618													-514.13879	457.37161	-1475.22278							
213	2.120																																		-412.94504	1146.08630	-1244.09570													-512.89044	455.47421	-1480.17371							
214	2.130																																		-411.80707	1146.37512	-1240.42017													-511.45575	456.08859	-1478.63025							
215	2.140																																		-411.39774	1146.96912	-1236.21155													-508.77603	457.25522	-1470.79077							
216	2.150																																		-410.55249	1146.94470	-1232.02124													-506.50900	457.39114	-1469.59534							
217	2.160																																		-408.07446	1146.35938	-1228.46179													-504.98575	455.61163	-1474.43127							
218	2.170																																		-406.83231	1147.05615	-1223.60059													-503.26733	454.90042	-1475.56519							
219	2.180																																		-406.61914	1147.17859	-1219.19885													-499.85648	457.02332	-1464.53796							
220	2.190																																		-405.99500	1147.06079	-1213.79968													-497.82465	456.77509	-1465.52722							
221	2.200																																		-404.32599	1147.01477	-1209.16260													-496.04364	454.74884	-1467.96985							
222	2.210																																		-403.47076	1146.62097	-1204.46631													-491.95609	457.92563	-1456.91418							
223	2.220																																		-403.28384	1146.27808	-1198.85034													-489.87576	456.65167	-1458.39209							
